<?xml version="1.0" standalone="no"?>
<!DOCTYPE svg PUBLIC "-//W3C//DTD SVG 20010904//EN"
 "http://www.w3.org/TR/2001/REC-SVG-20010904/DTD/svg10.dtd">
<svg version="1.0" xmlns="http://www.w3.org/2000/svg"
 width="1280.000000pt" height="640.000000pt" viewBox="0 0 1280.000000 640.000000"
 preserveAspectRatio="xMidYMid meet">
<metadata>
Created by potrace 1.15, written by Peter Selinger 2001-2017
</metadata>
<g transform="translate(0.000000,640.000000) scale(0.100000,-0.100000)"
fill="#000000" stroke="none">
<path d="M8095 4899 c-365 -19 -874 -70 -1244 -124 -447 -65 -790 -129 -1576
-295 -1188 -251 -1621 -310 -2260 -310 -633 0 -1259 96 -1965 300 -76 22 -143
40 -149 40 -11 0 -25 -28 -37 -74 -5 -21 0 -24 76 -46 89 -25 87 -23 60 -95
-11 -28 -11 -28 -118 5 -31 10 -58 17 -59 16 -1 -1 -13 -32 -26 -69 l-24 -67
36 -10 c20 -6 104 -29 186 -51 185 -50 177 -47 172 -56 -5 -8 -87 -320 -391
-1485 -67 -257 -125 -470 -127 -473 -5 -4 -312 73 -454 115 -38 11 -75 20 -82
20 -17 0 -46 -90 -30 -95 7 -2 46 -13 87 -24 81 -20 80 -19 59 -87 l-10 -32
-87 24 c-47 13 -89 20 -93 16 -3 -4 -13 -29 -22 -55 -12 -36 -13 -49 -4 -52 7
-2 59 -17 117 -34 766 -216 1389 -328 2180 -391 217 -18 928 -24 1186 -11 831
43 1335 120 2929 446 1180 241 1731 307 2445 292 866 -18 1718 -172 2791 -503
97 -30 180 -54 186 -54 6 0 20 28 32 63 45 124 94 252 101 260 4 4 46 -2 94
-14 48 -12 89 -19 91 -17 3 3 82 324 176 714 93 390 190 790 214 889 24 99 53
222 65 273 21 88 24 94 45 90 20 -4 26 2 44 49 26 67 26 73 3 73 -29 0 -31 8
-15 57 14 41 18 45 43 39 25 -5 30 -1 43 32 8 20 12 40 9 44 -10 9 -257 86
-507 157 -1028 293 -1996 457 -3017 511 -226 12 -938 11 -1173 -1z m645 -155
l0 -55 -106 3 -107 3 -4 39 c-7 65 -5 66 112 66 l105 0 0 -56z m-324 -1 l-1
-48 -107 -3 -108 -3 0 51 0 50 109 0 108 0 -1 -47z m654 -3 l0 -50 -110 0
-110 0 0 50 0 50 110 0 110 0 0 -50z m-980 -9 l0 -48 -102 -6 c-57 -3 -106 -3
-110 -1 -5 3 -8 25 -8 49 0 51 0 51 138 54 l82 1 0 -49z m1306 37 c2 -3 1 -26
-2 -52 l-7 -47 -96 6 c-53 4 -101 8 -106 10 -6 1 -9 23 -7 50 l4 48 105 -6
c57 -3 106 -7 109 -9z m-1636 -27 c0 -10 3 -32 6 -49 l6 -30 -106 -7 c-59 -4
-108 -6 -110 -4 -2 2 -7 25 -10 51 l-7 47 58 4 c151 9 163 8 163 -12z m1883
13 l77 -7 0 -48 c0 -26 -3 -49 -7 -51 -5 -2 -54 0 -110 5 l-103 9 0 33 c0 70
2 70 143 59z m-2203 -80 l0 -41 -77 -7 c-42 -4 -89 -10 -104 -13 -26 -5 -28
-3 -34 41 -4 26 -5 50 -2 53 13 12 202 29 209 18 4 -5 8 -29 8 -51z m2588 39
c21 -5 22 -9 16 -52 -4 -25 -7 -47 -8 -48 -1 -1 -50 3 -109 10 -102 10 -108
12 -103 31 3 12 6 34 6 50 l0 29 88 -7 c48 -4 97 -10 110 -13z m-2913 -59 c3
-26 3 -50 -2 -54 -10 -9 -194 -33 -201 -26 -5 5 -22 90 -18 93 1 1 47 9 101
16 55 8 103 15 106 16 4 1 10 -20 14 -45z m3150 31 c110 -13 108 -12 102 -62
-2 -24 -7 -46 -9 -49 -5 -4 -132 11 -185 22 -24 5 -30 33 -17 82 5 18 12 22
33 18 14 -3 49 -7 76 -11z m-3475 -54 c0 -10 3 -32 6 -48 l6 -30 -103 -17
c-56 -9 -106 -13 -110 -9 -4 4 -10 27 -14 50 l-7 42 49 6 c26 4 64 11 83 15
64 14 90 12 90 -9z m3819 4 c46 -8 85 -16 87 -17 3 -4 -12 -88 -17 -92 -2 -2
-50 3 -106 12 -111 17 -110 15 -97 81 8 37 13 37 133 16z m-4145 -52 c19 -68
18 -82 -6 -87 -66 -15 -189 -32 -192 -27 -6 9 -18 91 -14 92 1 0 46 8 98 18
52 11 98 19 102 20 4 1 9 -7 12 -16z m4457 0 c93 -15 100 -18 95 -37 -3 -12
-6 -28 -6 -36 -1 -41 -13 -43 -120 -25 l-102 18 6 36 c3 20 6 42 6 49 0 15 1
15 121 -5z m-1508 -24 c206 -12 217 -13 217 -32 0 -11 -48 -388 -106 -836 -58
-449 -114 -888 -126 -976 -11 -88 -21 -161 -22 -162 -2 -2 -68 1 -147 7 -214
14 -793 12 -1024 -5 -110 -8 -210 -15 -221 -15 -26 0 -21 -74 -64 1040 -16
421 -32 811 -35 866 l-5 102 107 7 c371 26 1008 28 1426 4z m-3269 -36 c9 -33
18 -83 14 -83 -2 0 -48 -9 -103 -19 -72 -14 -101 -17 -107 -9 -9 17 -20 79
-14 85 5 5 166 40 193 42 6 1 14 -7 17 -16z m5096 1 c47 -9 88 -20 92 -23 4
-3 2 -27 -3 -52 l-10 -46 -105 21 -106 20 6 40 c11 65 4 63 126 40z m-3980
-43 c0 -5 32 -290 70 -633 140 -1242 153 -1358 148 -1363 -3 -3 -88 -19 -189
-35 -259 -41 -618 -108 -1014 -189 -187 -38 -340 -69 -340 -68 -1 1 -27 108
-58 237 -31 129 -138 566 -237 970 -100 404 -182 744 -183 754 -2 17 24 25
253 72 453 94 963 183 1390 243 169 23 160 23 160 12z m-1428 -65 l3 -39 -85
-18 c-118 -25 -117 -25 -129 19 -6 20 -11 42 -11 48 0 15 203 53 212 39 4 -6
8 -28 10 -49z m4663 29 c219 -32 568 -95 804 -146 203 -43 752 -177 770 -189
8 -4 -90 -308 -305 -951 -174 -519 -320 -954 -325 -966 l-8 -22 -73 20 c-369
102 -733 184 -1112 249 -121 20 -215 39 -209 41 6 2 49 387 107 969 53 531 99
980 102 998 5 31 7 32 42 27 20 -3 114 -17 207 -30z m1075 9 c47 -10 86 -18
88 -20 2 -1 -2 -22 -9 -48 -8 -31 -17 -46 -28 -46 -14 0 -51 8 -170 35 -21 6
-23 10 -17 47 8 52 14 60 34 54 10 -3 55 -13 102 -22z m-6057 -92 c5 -24 7
-45 5 -47 -2 -2 -39 -11 -83 -20 -44 -9 -90 -18 -101 -21 -18 -5 -23 1 -33 41
-7 26 -10 49 -8 51 8 8 172 43 192 41 15 -2 22 -13 28 -45z m6376 19 c46 -11
85 -21 86 -23 1 -2 -4 -24 -11 -50 -9 -28 -19 -46 -27 -43 -6 2 -54 13 -104
25 -92 22 -93 23 -86 49 13 57 23 72 41 67 9 -3 55 -14 101 -25z m-6697 -90
l3 -45 -85 -17 c-119 -25 -116 -26 -129 27 -7 26 -11 47 -9 49 10 7 204 41
210 36 4 -3 8 -26 10 -50z m-3955 17 c51 -13 93 -27 93 -33 0 -33 -23 -85 -37
-85 -22 0 -176 41 -185 49 -11 9 13 91 26 91 6 0 52 -10 103 -22z m10951 1
c48 -12 91 -25 95 -29 4 -4 2 -28 -5 -54 -9 -34 -16 -45 -27 -41 -8 3 -53 15
-100 27 -47 11 -88 22 -90 24 -7 6 22 94 31 94 5 0 48 -10 96 -21z m-7318 -41
c0 -7 3 -29 6 -49 l6 -37 -88 -16 c-122 -22 -122 -22 -131 22 -4 20 -8 41 -8
46 0 6 38 17 85 27 107 21 130 22 130 7z m-3226 -59 c3 -2 -1 -26 -7 -52 -7
-30 -15 -46 -23 -43 -6 2 -51 12 -99 22 -48 9 -89 23 -92 30 -2 6 0 30 6 51
l11 40 100 -22 c55 -12 102 -24 104 -26z m10859 15 c50 -14 95 -28 99 -30 8
-5 -20 -94 -30 -94 -7 0 -195 52 -200 55 -1 1 3 17 9 36 6 19 12 40 15 47 4
16 0 16 107 -14z m-7953 -16 c0 -7 3 -29 6 -49 l6 -36 -78 -12 c-44 -7 -91
-15 -105 -18 -25 -5 -28 -2 -37 43 -6 27 -10 50 -8 51 4 4 162 31 189 32 15 1
27 -4 27 -11z m-2665 -40 c39 -6 73 -14 77 -17 4 -3 2 -27 -3 -52 l-10 -46
-101 18 c-55 10 -102 20 -105 22 -2 3 -1 26 3 52 6 46 7 47 38 41 17 -4 63
-12 101 -18z m2349 -45 c3 -25 5 -48 3 -50 -8 -7 -202 -31 -208 -25 -6 7 -21
91 -17 93 10 3 177 27 194 28 18 1 22 -6 28 -46z m-2054 2 c114 -13 110 -10
103 -63 -3 -26 -7 -48 -8 -49 -3 -5 -205 23 -210 29 -3 2 -2 26 1 52 6 44 8
47 33 42 14 -3 51 -8 81 -11z m1730 -47 c7 -55 9 -54 -122 -64 l-85 -7 -6 33
c-14 68 -15 66 86 77 126 14 121 15 127 -39z m-1352 12 l53 0 -3 -52 -3 -52
-55 2 c-30 1 -79 5 -107 8 l-53 6 0 42 c0 24 3 46 8 50 4 5 30 5 57 2 28 -3
74 -6 103 -6z m1026 -21 c15 -76 13 -79 -58 -79 -35 0 -84 -3 -110 -6 l-46 -7
0 51 0 51 43 5 c23 4 67 8 97 9 30 2 58 4 61 5 4 1 9 -12 13 -29z m-700 5 l46
-7 0 -50 0 -50 -107 7 c-60 4 -108 8 -109 9 0 1 1 23 4 50 l4 47 58 0 c31 0
78 -3 104 -6z m376 -43 c0 -59 -4 -61 -132 -61 l-88 0 0 50 0 49 58 4 c31 2
81 4 110 5 l52 2 0 -49z m1673 7 c3 -13 26 -126 51 -253 117 -596 270 -1377
301 -1534 19 -96 33 -176 30 -179 -15 -15 -773 -137 -1070 -172 -256 -30 -708
-68 -636 -53 23 5 23 5 17 106 -7 102 -80 1500 -92 1759 l-7 137 34 5 c19 3
66 8 104 11 244 21 728 94 1075 164 183 36 187 37 193 9z m-3123 -102 c319
-55 568 -81 923 -98 l267 -12 0 -1003 0 -1003 -82 0 c-400 0 -994 49 -1428
116 -271 42 -303 48 -308 63 -3 9 2 11 17 6 11 -3 21 -3 21 2 0 5 92 446 205
982 113 535 205 975 205 978 0 2 8 2 18 -1 9 -3 82 -17 162 -30z m8197 -1452
c-3 -3 -12 -4 -19 -1 -8 3 -5 6 6 6 11 1 17 -2 13 -5z m-1399 -92 l3 -52 -110
0 -111 0 0 50 0 49 98 3 c53 2 102 3 107 3 6 -1 11 -25 13 -53z m255 52 c75
-7 77 -8 77 -33 -1 -70 -2 -71 -116 -71 l-104 0 0 55 0 55 33 0 c19 0 68 -3
110 -6z m392 -19 c6 -1 9 -23 7 -50 l-4 -48 -105 6 c-57 3 -107 7 -109 10 -3
3 -2 26 1 52 l7 46 97 -6 c53 -4 101 -8 106 -10z m-973 -37 c3 -24 2 -46 -1
-49 -3 -4 -52 -9 -108 -13 l-103 -6 0 27 c0 16 -3 38 -6 50 -7 26 8 29 132 32
l82 1 4 -42z m1241 17 c64 -6 67 -8 67 -33 0 -15 -3 -37 -6 -50 -7 -23 -9 -23
-83 -17 -132 11 -131 10 -131 59 0 53 5 58 50 52 19 -3 65 -8 103 -11z m-1569
-11 c3 -9 6 -30 6 -49 0 -32 0 -33 -57 -39 -32 -4 -79 -9 -104 -12 -42 -5 -47
-3 -53 18 -3 13 -6 35 -6 50 0 24 4 27 43 32 143 19 164 19 171 0z m1869 -24
c43 -5 82 -10 87 -10 9 0 1 -81 -9 -92 -3 -4 -52 -2 -109 4 -111 12 -107 9
-96 80 6 32 10 37 28 33 11 -2 56 -9 99 -15z m-2188 -50 l7 -46 -103 -13 c-56
-7 -105 -9 -109 -4 -4 4 -10 27 -14 49 l-6 41 103 15 c56 8 105 12 109 9 3 -3
9 -26 13 -51z m2543 -2 l63 -10 -6 -42 c-4 -22 -10 -45 -14 -49 -4 -4 -54 0
-110 9 l-102 17 7 41 c10 65 -5 62 162 34z m-2866 -37 c4 -25 6 -46 4 -48 -1
-2 -49 -11 -104 -21 l-102 -18 -10 35 c-18 66 -18 66 83 83 50 9 99 15 107 14
9 -1 17 -18 22 -45z m3161 -17 l88 -17 -6 -41 c-4 -23 -11 -45 -15 -49 -4 -5
-45 -1 -91 8 -126 25 -121 22 -114 58 12 60 16 68 33 63 9 -3 57 -13 105 -22z
m-3489 -11 c2 -10 7 -32 11 -49 l6 -30 -102 -18 c-55 -10 -105 -14 -110 -9 -4
4 -11 26 -14 49 l-7 41 83 15 c114 21 127 21 133 1z m3798 -54 c51 -11 94 -21
96 -23 1 -2 -2 -25 -9 -51 -10 -40 -15 -46 -33 -41 -11 2 -58 12 -103 22 -46
10 -83 22 -83 28 0 25 22 86 31 86 5 0 51 -9 101 -21z m-4113 -26 c6 -21 11
-43 11 -49 0 -17 -202 -58 -211 -42 -9 14 -22 79 -17 84 5 4 167 41 190 43 12
1 20 -11 27 -36z m4444 -54 c72 -18 87 -25 82 -38 -4 -9 -9 -28 -12 -44 -3
-15 -9 -29 -12 -32 -6 -3 -202 43 -208 49 -2 1 4 24 13 50 12 35 20 45 33 42
9 -3 56 -15 104 -27z m-4769 13 c3 -5 8 -27 12 -49 l6 -40 -83 -17 c-46 -9
-93 -19 -104 -22 -17 -4 -22 2 -33 42 -7 26 -11 48 -9 50 4 5 168 42 189 43 9
1 19 -3 22 -7z m-5876 -84 c50 -12 92 -27 92 -32 0 -22 -21 -86 -28 -86 -9 0
-196 43 -201 47 -8 6 22 93 33 93 6 0 53 -10 104 -22z m5565 -15 c4 -21 6 -42
6 -48 -1 -8 -163 -52 -200 -55 -4 0 -10 16 -13 36 -4 19 -9 41 -12 49 -4 9 18
19 78 33 126 30 134 29 141 -15z m5440 -10 c37 -8 40 -16 26 -63 -13 -43 -24
-47 -75 -31 -16 5 -55 17 -87 26 -58 16 -58 16 -52 48 15 67 17 68 92 46 38
-11 80 -22 96 -26z m-5754 -68 c6 -22 7 -42 3 -46 -5 -5 -155 -37 -196 -43 -5
0 -15 20 -21 47 -12 45 -12 47 9 52 147 34 182 41 188 36 3 -3 11 -24 17 -46z
m-4942 24 c54 -12 99 -23 101 -24 2 -1 -2 -24 -9 -50 -13 -53 1 -51 -146 -19
-57 12 -73 20 -73 34 0 19 20 80 26 80 2 0 47 -10 101 -21z m10956 -34 c97
-29 95 -26 67 -99 l-9 -24 -97 29 c-54 16 -99 29 -102 29 -2 0 -1 11 2 25 13
50 26 74 38 70 7 -2 53 -16 101 -30z m-6335 -52 c6 -26 10 -49 8 -50 -2 -3
-117 -27 -177 -37 l-37 -6 -7 46 c-3 25 -4 48 -1 51 4 5 162 39 193 42 6 0 16
-20 21 -46z m-4294 21 c50 -9 92 -18 94 -19 8 -6 -22 -95 -32 -95 -15 0 -190
32 -194 35 -2 2 0 24 3 49 8 53 3 52 129 30z m3974 -81 c6 -26 9 -49 8 -50 -2
-2 -49 -12 -105 -22 -112 -20 -110 -22 -114 44 l-2 39 95 17 c52 9 98 17 102
18 3 0 11 -20 16 -46z m-3649 22 c46 -8 85 -16 87 -17 3 -4 -12 -88 -18 -93
-4 -4 -199 25 -206 31 -2 1 0 23 3 48 8 54 7 53 134 31z m3335 -126 c-5 -9
-203 -34 -210 -26 -4 3 -9 26 -11 49 l-5 44 103 14 104 15 11 -45 c6 -25 9
-48 8 -51z m-3021 79 l98 -12 -7 -46 c-4 -25 -8 -48 -10 -51 -1 -3 -51 1 -109
9 l-107 15 6 30 c3 16 6 38 6 48 0 23 -1 22 123 7z m350 -44 c64 -6 67 -7 67
-33 0 -14 -3 -37 -7 -50 -6 -22 -8 -23 -82 -16 -133 11 -138 13 -134 43 11 75
11 74 51 68 20 -3 67 -8 105 -12z m2342 -30 c3 -25 5 -48 2 -50 -7 -7 -208
-31 -212 -25 -1 3 -5 26 -6 51 l-4 45 90 11 c50 6 97 12 106 13 12 1 19 -11
24 -45z m-2037 1 c76 -6 92 -10 88 -22 -3 -8 -6 -31 -6 -50 l0 -35 -107 7
c-60 4 -109 8 -111 10 -2 1 0 26 4 54 5 41 10 51 23 47 9 -3 58 -8 109 -11z
m1714 -41 c2 -25 1 -47 -2 -49 -4 -2 -51 -7 -107 -11 l-100 -7 -6 33 c-14 66
-12 69 51 73 31 2 80 4 108 5 l52 2 4 -46z m-1384 19 l82 -6 0 -48 0 -49 -49
0 c-26 0 -76 3 -110 6 l-61 7 0 48 c0 56 -8 54 138 42z m1056 -15 c3 -13 6
-35 6 -49 0 -24 -5 -27 -46 -33 -26 -3 -75 -6 -110 -6 l-64 0 0 50 0 49 68 4
c37 2 83 4 103 5 30 2 38 -2 43 -20z m-706 2 l52 0 0 -50 0 -50 -104 0 c-58 0
-107 3 -109 8 -2 4 -2 29 1 56 l4 49 52 -7 c28 -3 75 -6 104 -6z m382 -45 l0
-55 -110 0 -110 0 0 50 0 49 93 4 c50 1 100 4 110 5 14 2 17 -6 17 -53z"/>
<path d="M387 1574 c-4 -4 -7 -16 -7 -26 0 -14 6 -19 23 -16 14 2 22 10 22 23
0 20 -25 32 -38 19z"/>
</g>
</svg>
